<mxfile host="app.diagrams.net" modified="2022-04-26T18:51:20.102Z" agent="5.0 (Windows NT 10.0; Win64; x64) AppleWebKit/537.36 (KHTML, like Gecko) Chrome/100.0.4896.127 Safari/537.36" etag="ms_R-wF5YojOmb2bC_6B" version="17.4.6" type="github">
  <diagram id="R2lEEEUBdFMjLlhIrx00" name="Page-1">
    <mxGraphModel dx="1330" dy="721" grid="1" gridSize="10" guides="1" tooltips="1" connect="1" arrows="1" fold="1" page="1" pageScale="1" pageWidth="850" pageHeight="1100" math="0" shadow="0" extFonts="Permanent Marker^https://fonts.googleapis.com/css?family=Permanent+Marker">
      <root>
        <mxCell id="0" />
        <mxCell id="1" parent="0" />
        <mxCell id="cPPdsJx62GH54IWqDwFQ-19" value="User" style="whiteSpace=wrap;html=1;align=center;" vertex="1" parent="1">
          <mxGeometry x="260" y="200" width="100" height="40" as="geometry" />
        </mxCell>
        <mxCell id="cPPdsJx62GH54IWqDwFQ-20" value="User Preference" style="whiteSpace=wrap;html=1;align=center;" vertex="1" parent="1">
          <mxGeometry x="520" y="200" width="100" height="40" as="geometry" />
        </mxCell>
        <mxCell id="cPPdsJx62GH54IWqDwFQ-22" style="edgeStyle=orthogonalEdgeStyle;rounded=0;orthogonalLoop=1;jettySize=auto;html=1;entryX=0;entryY=0.5;entryDx=0;entryDy=0;endArrow=none;endFill=0;" edge="1" parent="1" source="cPPdsJx62GH54IWqDwFQ-21" target="cPPdsJx62GH54IWqDwFQ-20">
          <mxGeometry relative="1" as="geometry" />
        </mxCell>
        <mxCell id="cPPdsJx62GH54IWqDwFQ-23" style="edgeStyle=orthogonalEdgeStyle;rounded=0;orthogonalLoop=1;jettySize=auto;html=1;entryX=1;entryY=0.5;entryDx=0;entryDy=0;endArrow=none;endFill=0;" edge="1" parent="1" source="cPPdsJx62GH54IWqDwFQ-21" target="cPPdsJx62GH54IWqDwFQ-19">
          <mxGeometry relative="1" as="geometry" />
        </mxCell>
        <mxCell id="cPPdsJx62GH54IWqDwFQ-21" value="besitzt" style="shape=rhombus;perimeter=rhombusPerimeter;whiteSpace=wrap;html=1;align=center;" vertex="1" parent="1">
          <mxGeometry x="380" y="190" width="120" height="60" as="geometry" />
        </mxCell>
        <mxCell id="cPPdsJx62GH54IWqDwFQ-24" value="1" style="text;html=1;strokeColor=none;fillColor=none;align=center;verticalAlign=middle;whiteSpace=wrap;rounded=0;" vertex="1" parent="1">
          <mxGeometry x="340" y="190" width="60" height="30" as="geometry" />
        </mxCell>
        <mxCell id="cPPdsJx62GH54IWqDwFQ-25" value="0..n" style="text;html=1;strokeColor=none;fillColor=none;align=center;verticalAlign=middle;whiteSpace=wrap;rounded=0;" vertex="1" parent="1">
          <mxGeometry x="490" y="195" width="30" height="20" as="geometry" />
        </mxCell>
        <mxCell id="cPPdsJx62GH54IWqDwFQ-26" value="0..n" style="text;html=1;strokeColor=none;fillColor=none;align=center;verticalAlign=middle;whiteSpace=wrap;rounded=0;" vertex="1" parent="cPPdsJx62GH54IWqDwFQ-25">
          <mxGeometry width="30" height="20" as="geometry" />
        </mxCell>
        <mxCell id="cPPdsJx62GH54IWqDwFQ-35" style="edgeStyle=none;rounded=0;orthogonalLoop=1;jettySize=auto;html=1;exitX=0.5;exitY=1;exitDx=0;exitDy=0;entryX=0.25;entryY=0;entryDx=0;entryDy=0;endArrow=none;endFill=0;" edge="1" parent="1" source="cPPdsJx62GH54IWqDwFQ-27" target="cPPdsJx62GH54IWqDwFQ-19">
          <mxGeometry relative="1" as="geometry" />
        </mxCell>
        <mxCell id="cPPdsJx62GH54IWqDwFQ-27" value="id" style="ellipse;whiteSpace=wrap;html=1;align=center;fontStyle=4;" vertex="1" parent="1">
          <mxGeometry x="210" y="120" width="100" height="40" as="geometry" />
        </mxCell>
        <mxCell id="cPPdsJx62GH54IWqDwFQ-28" value="name" style="ellipse;whiteSpace=wrap;html=1;align=center;" vertex="1" parent="1">
          <mxGeometry x="140" y="160" width="100" height="40" as="geometry" />
        </mxCell>
        <mxCell id="cPPdsJx62GH54IWqDwFQ-33" style="rounded=0;orthogonalLoop=1;jettySize=auto;html=1;exitX=1;exitY=0;exitDx=0;exitDy=0;entryX=0;entryY=0.75;entryDx=0;entryDy=0;endArrow=none;endFill=0;" edge="1" parent="1" source="cPPdsJx62GH54IWqDwFQ-29" target="cPPdsJx62GH54IWqDwFQ-19">
          <mxGeometry relative="1" as="geometry" />
        </mxCell>
        <mxCell id="cPPdsJx62GH54IWqDwFQ-29" value="lastname" style="ellipse;whiteSpace=wrap;html=1;align=center;" vertex="1" parent="1">
          <mxGeometry x="140" y="240" width="100" height="40" as="geometry" />
        </mxCell>
        <mxCell id="cPPdsJx62GH54IWqDwFQ-34" style="edgeStyle=none;rounded=0;orthogonalLoop=1;jettySize=auto;html=1;exitX=0.5;exitY=0;exitDx=0;exitDy=0;entryX=0.195;entryY=1.007;entryDx=0;entryDy=0;entryPerimeter=0;endArrow=none;endFill=0;" edge="1" parent="1" source="cPPdsJx62GH54IWqDwFQ-30" target="cPPdsJx62GH54IWqDwFQ-19">
          <mxGeometry relative="1" as="geometry" />
        </mxCell>
        <mxCell id="cPPdsJx62GH54IWqDwFQ-30" value="email" style="ellipse;whiteSpace=wrap;html=1;align=center;" vertex="1" parent="1">
          <mxGeometry x="210" y="280" width="100" height="40" as="geometry" />
        </mxCell>
        <mxCell id="cPPdsJx62GH54IWqDwFQ-32" value="" style="endArrow=none;html=1;rounded=0;entryX=1;entryY=1;entryDx=0;entryDy=0;exitX=0;exitY=0.25;exitDx=0;exitDy=0;" edge="1" parent="1" source="cPPdsJx62GH54IWqDwFQ-19" target="cPPdsJx62GH54IWqDwFQ-28">
          <mxGeometry width="50" height="50" relative="1" as="geometry">
            <mxPoint x="460" y="200" as="sourcePoint" />
            <mxPoint x="510" y="150" as="targetPoint" />
          </mxGeometry>
        </mxCell>
        <mxCell id="cPPdsJx62GH54IWqDwFQ-40" style="edgeStyle=none;rounded=0;orthogonalLoop=1;jettySize=auto;html=1;exitX=0.5;exitY=1;exitDx=0;exitDy=0;entryX=0.75;entryY=0;entryDx=0;entryDy=0;endArrow=none;endFill=0;" edge="1" parent="1" source="cPPdsJx62GH54IWqDwFQ-36" target="cPPdsJx62GH54IWqDwFQ-20">
          <mxGeometry relative="1" as="geometry" />
        </mxCell>
        <mxCell id="cPPdsJx62GH54IWqDwFQ-36" value="id" style="ellipse;whiteSpace=wrap;html=1;align=center;fontStyle=4;" vertex="1" parent="1">
          <mxGeometry x="570" y="120" width="100" height="40" as="geometry" />
        </mxCell>
        <mxCell id="cPPdsJx62GH54IWqDwFQ-41" style="edgeStyle=none;rounded=0;orthogonalLoop=1;jettySize=auto;html=1;exitX=0;exitY=1;exitDx=0;exitDy=0;entryX=1;entryY=0.25;entryDx=0;entryDy=0;endArrow=none;endFill=0;" edge="1" parent="1" source="cPPdsJx62GH54IWqDwFQ-44" target="cPPdsJx62GH54IWqDwFQ-20">
          <mxGeometry relative="1" as="geometry">
            <mxPoint x="644.7592640563828" y="194.18782875652118" as="sourcePoint" />
          </mxGeometry>
        </mxCell>
        <mxCell id="cPPdsJx62GH54IWqDwFQ-42" style="edgeStyle=none;rounded=0;orthogonalLoop=1;jettySize=auto;html=1;exitX=0;exitY=0;exitDx=0;exitDy=0;entryX=1;entryY=0.75;entryDx=0;entryDy=0;endArrow=none;endFill=0;" edge="1" parent="1" source="cPPdsJx62GH54IWqDwFQ-38" target="cPPdsJx62GH54IWqDwFQ-20">
          <mxGeometry relative="1" as="geometry" />
        </mxCell>
        <mxCell id="cPPdsJx62GH54IWqDwFQ-38" value="name" style="ellipse;whiteSpace=wrap;html=1;align=center;" vertex="1" parent="1">
          <mxGeometry x="640" y="240" width="100" height="40" as="geometry" />
        </mxCell>
        <mxCell id="cPPdsJx62GH54IWqDwFQ-43" style="edgeStyle=none;rounded=0;orthogonalLoop=1;jettySize=auto;html=1;exitX=0.5;exitY=0;exitDx=0;exitDy=0;entryX=0.75;entryY=1;entryDx=0;entryDy=0;endArrow=none;endFill=0;" edge="1" parent="1" source="cPPdsJx62GH54IWqDwFQ-39" target="cPPdsJx62GH54IWqDwFQ-20">
          <mxGeometry relative="1" as="geometry" />
        </mxCell>
        <mxCell id="cPPdsJx62GH54IWqDwFQ-39" value="value" style="ellipse;whiteSpace=wrap;html=1;align=center;" vertex="1" parent="1">
          <mxGeometry x="570" y="280" width="100" height="40" as="geometry" />
        </mxCell>
        <mxCell id="cPPdsJx62GH54IWqDwFQ-44" value="&lt;span style=&quot;border-bottom: 1px dotted&quot;&gt;userId&lt;/span&gt;" style="ellipse;whiteSpace=wrap;html=1;align=center;" vertex="1" parent="1">
          <mxGeometry x="640" y="160" width="100" height="40" as="geometry" />
        </mxCell>
      </root>
    </mxGraphModel>
  </diagram>
</mxfile>
